<mxfile host="app.diagrams.net" modified="2023-05-05T05:56:29.866Z" agent="Mozilla/5.0 (Windows NT 10.0; Win64; x64) AppleWebKit/537.36 (KHTML, like Gecko) Chrome/112.0.0.0 Whale/3.20.182.14 Safari/537.36" etag="PCnhXm7eGVL3Vm2ni_Fz" version="21.2.7" type="device">
  <diagram name="Page-1" id="2YBvvXClWsGukQMizWep">
    <mxGraphModel dx="744" dy="424" grid="1" gridSize="10" guides="1" tooltips="1" connect="1" arrows="1" fold="1" page="1" pageScale="1" pageWidth="850" pageHeight="1100" math="0" shadow="0">
      <root>
        <mxCell id="0" />
        <mxCell id="1" parent="0" />
        <mxCell id="O3P-cf8QrBY7kVAXS-Ra-35" value="" style="rounded=0;whiteSpace=wrap;html=1;" vertex="1" parent="1">
          <mxGeometry x="10" y="370" width="820" height="240" as="geometry" />
        </mxCell>
        <mxCell id="O3P-cf8QrBY7kVAXS-Ra-34" value="" style="rounded=0;whiteSpace=wrap;html=1;" vertex="1" parent="1">
          <mxGeometry x="10" y="130" width="820" height="240" as="geometry" />
        </mxCell>
        <mxCell id="O3P-cf8QrBY7kVAXS-Ra-1" value=":User" style="rounded=1;whiteSpace=wrap;html=1;" vertex="1" parent="1">
          <mxGeometry x="30" y="80" width="100" height="40" as="geometry" />
        </mxCell>
        <mxCell id="O3P-cf8QrBY7kVAXS-Ra-2" value=":UI" style="rounded=1;whiteSpace=wrap;html=1;" vertex="1" parent="1">
          <mxGeometry x="200" y="80" width="100" height="40" as="geometry" />
        </mxCell>
        <mxCell id="O3P-cf8QrBY7kVAXS-Ra-3" value=":System" style="rounded=1;whiteSpace=wrap;html=1;" vertex="1" parent="1">
          <mxGeometry x="375" y="80" width="100" height="40" as="geometry" />
        </mxCell>
        <mxCell id="O3P-cf8QrBY7kVAXS-Ra-4" value=":Message" style="rounded=1;whiteSpace=wrap;html=1;" vertex="1" parent="1">
          <mxGeometry x="550" y="80" width="100" height="40" as="geometry" />
        </mxCell>
        <mxCell id="O3P-cf8QrBY7kVAXS-Ra-5" value=":Datebase" style="rounded=1;whiteSpace=wrap;html=1;" vertex="1" parent="1">
          <mxGeometry x="730" y="80" width="90" height="40" as="geometry" />
        </mxCell>
        <mxCell id="O3P-cf8QrBY7kVAXS-Ra-7" value="" style="endArrow=none;dashed=1;html=1;rounded=0;" edge="1" parent="1" source="O3P-cf8QrBY7kVAXS-Ra-39">
          <mxGeometry width="50" height="50" relative="1" as="geometry">
            <mxPoint x="79.5" y="590" as="sourcePoint" />
            <mxPoint x="79.5" y="120" as="targetPoint" />
          </mxGeometry>
        </mxCell>
        <mxCell id="O3P-cf8QrBY7kVAXS-Ra-8" value="" style="endArrow=none;dashed=1;html=1;rounded=0;" edge="1" parent="1" source="O3P-cf8QrBY7kVAXS-Ra-43">
          <mxGeometry width="50" height="50" relative="1" as="geometry">
            <mxPoint x="249.5" y="590" as="sourcePoint" />
            <mxPoint x="249.5" y="120" as="targetPoint" />
          </mxGeometry>
        </mxCell>
        <mxCell id="O3P-cf8QrBY7kVAXS-Ra-9" value="" style="endArrow=none;dashed=1;html=1;rounded=0;" edge="1" parent="1" source="O3P-cf8QrBY7kVAXS-Ra-47">
          <mxGeometry width="50" height="50" relative="1" as="geometry">
            <mxPoint x="424.5" y="590" as="sourcePoint" />
            <mxPoint x="424.5" y="120" as="targetPoint" />
          </mxGeometry>
        </mxCell>
        <mxCell id="O3P-cf8QrBY7kVAXS-Ra-10" value="" style="endArrow=none;dashed=1;html=1;rounded=0;" edge="1" parent="1" source="O3P-cf8QrBY7kVAXS-Ra-13">
          <mxGeometry width="50" height="50" relative="1" as="geometry">
            <mxPoint x="599.5" y="590" as="sourcePoint" />
            <mxPoint x="599.5" y="120" as="targetPoint" />
          </mxGeometry>
        </mxCell>
        <mxCell id="O3P-cf8QrBY7kVAXS-Ra-11" value="" style="endArrow=none;dashed=1;html=1;rounded=0;" edge="1" parent="1" source="O3P-cf8QrBY7kVAXS-Ra-31">
          <mxGeometry width="50" height="50" relative="1" as="geometry">
            <mxPoint x="774.5" y="590" as="sourcePoint" />
            <mxPoint x="774.5" y="120" as="targetPoint" />
          </mxGeometry>
        </mxCell>
        <mxCell id="O3P-cf8QrBY7kVAXS-Ra-12" value="" style="rounded=0;whiteSpace=wrap;html=1;" vertex="1" parent="1">
          <mxGeometry x="420" y="130" width="10" height="220" as="geometry" />
        </mxCell>
        <mxCell id="O3P-cf8QrBY7kVAXS-Ra-14" value="" style="endArrow=none;dashed=1;html=1;rounded=0;" edge="1" parent="1" source="O3P-cf8QrBY7kVAXS-Ra-55" target="O3P-cf8QrBY7kVAXS-Ra-13">
          <mxGeometry width="50" height="50" relative="1" as="geometry">
            <mxPoint x="599.5" y="590" as="sourcePoint" />
            <mxPoint x="599.5" y="120" as="targetPoint" />
          </mxGeometry>
        </mxCell>
        <mxCell id="O3P-cf8QrBY7kVAXS-Ra-13" value="" style="rounded=0;whiteSpace=wrap;html=1;" vertex="1" parent="1">
          <mxGeometry x="595" y="130" width="10" height="100" as="geometry" />
        </mxCell>
        <mxCell id="O3P-cf8QrBY7kVAXS-Ra-15" value="" style="endArrow=classic;html=1;rounded=0;" edge="1" parent="1">
          <mxGeometry width="50" height="50" relative="1" as="geometry">
            <mxPoint x="430" y="160" as="sourcePoint" />
            <mxPoint x="595" y="160" as="targetPoint" />
          </mxGeometry>
        </mxCell>
        <mxCell id="O3P-cf8QrBY7kVAXS-Ra-16" value="getMessage()" style="text;html=1;strokeColor=none;fillColor=none;align=center;verticalAlign=middle;whiteSpace=wrap;rounded=0;" vertex="1" parent="1">
          <mxGeometry x="490" y="130" width="60" height="30" as="geometry" />
        </mxCell>
        <mxCell id="O3P-cf8QrBY7kVAXS-Ra-17" value="" style="endArrow=classic;html=1;rounded=0;dashed=1;" edge="1" parent="1">
          <mxGeometry width="50" height="50" relative="1" as="geometry">
            <mxPoint x="595" y="200" as="sourcePoint" />
            <mxPoint x="430" y="200" as="targetPoint" />
          </mxGeometry>
        </mxCell>
        <mxCell id="O3P-cf8QrBY7kVAXS-Ra-18" value="return getMessage()" style="text;html=1;strokeColor=none;fillColor=none;align=center;verticalAlign=middle;whiteSpace=wrap;rounded=0;" vertex="1" parent="1">
          <mxGeometry x="490" y="170" width="60" height="30" as="geometry" />
        </mxCell>
        <mxCell id="O3P-cf8QrBY7kVAXS-Ra-19" value="" style="rounded=0;whiteSpace=wrap;html=1;" vertex="1" parent="1">
          <mxGeometry x="425" y="240" width="10" height="100" as="geometry" />
        </mxCell>
        <mxCell id="O3P-cf8QrBY7kVAXS-Ra-24" value="" style="curved=1;endArrow=classic;html=1;rounded=0;exitX=1.044;exitY=0.159;exitDx=0;exitDy=0;exitPerimeter=0;entryX=1;entryY=0.4;entryDx=0;entryDy=0;entryPerimeter=0;" edge="1" parent="1">
          <mxGeometry width="50" height="50" relative="1" as="geometry">
            <mxPoint x="435" y="251" as="sourcePoint" />
            <mxPoint x="435" y="268" as="targetPoint" />
            <Array as="points">
              <mxPoint x="460" y="250" />
              <mxPoint x="460" y="270" />
            </Array>
          </mxGeometry>
        </mxCell>
        <mxCell id="O3P-cf8QrBY7kVAXS-Ra-25" value="userAnalysis(User)" style="text;html=1;strokeColor=none;fillColor=none;align=center;verticalAlign=middle;whiteSpace=wrap;rounded=0;" vertex="1" parent="1">
          <mxGeometry x="480" y="265" width="60" height="30" as="geometry" />
        </mxCell>
        <mxCell id="O3P-cf8QrBY7kVAXS-Ra-26" value="" style="curved=1;endArrow=classic;html=1;rounded=0;exitX=1.044;exitY=0.159;exitDx=0;exitDy=0;exitPerimeter=0;entryX=1;entryY=0.4;entryDx=0;entryDy=0;entryPerimeter=0;" edge="1" parent="1">
          <mxGeometry width="50" height="50" relative="1" as="geometry">
            <mxPoint x="435" y="281" as="sourcePoint" />
            <mxPoint x="435" y="298" as="targetPoint" />
            <Array as="points">
              <mxPoint x="460" y="280" />
              <mxPoint x="460" y="300" />
            </Array>
          </mxGeometry>
        </mxCell>
        <mxCell id="O3P-cf8QrBY7kVAXS-Ra-27" value="&lt;font style=&quot;font-size: 10px;&quot;&gt;conversationAnalysis(message)&lt;/font&gt;" style="text;html=1;strokeColor=none;fillColor=none;align=center;verticalAlign=middle;whiteSpace=wrap;rounded=0;" vertex="1" parent="1">
          <mxGeometry x="500" y="225" width="20" height="30" as="geometry" />
        </mxCell>
        <mxCell id="O3P-cf8QrBY7kVAXS-Ra-29" value="" style="curved=1;endArrow=classic;html=1;rounded=0;exitX=1.044;exitY=0.159;exitDx=0;exitDy=0;exitPerimeter=0;entryX=-0.086;entryY=0.07;entryDx=0;entryDy=0;entryPerimeter=0;" edge="1" parent="1" target="O3P-cf8QrBY7kVAXS-Ra-12">
          <mxGeometry width="50" height="50" relative="1" as="geometry">
            <mxPoint x="425" y="314" as="sourcePoint" />
            <mxPoint x="425" y="297" as="targetPoint" />
            <Array as="points">
              <mxPoint x="400" y="315" />
              <mxPoint x="380" y="250" />
              <mxPoint x="390" y="160" />
              <mxPoint x="400" y="145" />
            </Array>
          </mxGeometry>
        </mxCell>
        <mxCell id="O3P-cf8QrBY7kVAXS-Ra-30" value="" style="endArrow=classic;html=1;rounded=0;" edge="1" parent="1">
          <mxGeometry width="50" height="50" relative="1" as="geometry">
            <mxPoint x="435" y="330" as="sourcePoint" />
            <mxPoint x="770" y="330" as="targetPoint" />
          </mxGeometry>
        </mxCell>
        <mxCell id="O3P-cf8QrBY7kVAXS-Ra-32" value="" style="endArrow=none;dashed=1;html=1;rounded=0;" edge="1" parent="1" source="O3P-cf8QrBY7kVAXS-Ra-62" target="O3P-cf8QrBY7kVAXS-Ra-31">
          <mxGeometry width="50" height="50" relative="1" as="geometry">
            <mxPoint x="774.5" y="590" as="sourcePoint" />
            <mxPoint x="774.5" y="120" as="targetPoint" />
          </mxGeometry>
        </mxCell>
        <mxCell id="O3P-cf8QrBY7kVAXS-Ra-31" value="" style="rounded=0;whiteSpace=wrap;html=1;" vertex="1" parent="1">
          <mxGeometry x="770" y="320" width="10" height="20" as="geometry" />
        </mxCell>
        <mxCell id="O3P-cf8QrBY7kVAXS-Ra-36" value="평상 시" style="rounded=0;whiteSpace=wrap;html=1;" vertex="1" parent="1">
          <mxGeometry x="10" y="130" width="60" height="30" as="geometry" />
        </mxCell>
        <mxCell id="O3P-cf8QrBY7kVAXS-Ra-37" value="추천 문장&amp;nbsp;&lt;br&gt;요청 시" style="rounded=0;whiteSpace=wrap;html=1;" vertex="1" parent="1">
          <mxGeometry x="10" y="370" width="60" height="30" as="geometry" />
        </mxCell>
        <mxCell id="O3P-cf8QrBY7kVAXS-Ra-40" value="" style="endArrow=none;dashed=1;html=1;rounded=0;" edge="1" parent="1" target="O3P-cf8QrBY7kVAXS-Ra-39">
          <mxGeometry width="50" height="50" relative="1" as="geometry">
            <mxPoint x="80" y="680" as="sourcePoint" />
            <mxPoint x="79.5" y="120" as="targetPoint" />
          </mxGeometry>
        </mxCell>
        <mxCell id="O3P-cf8QrBY7kVAXS-Ra-39" value="" style="rounded=0;whiteSpace=wrap;html=1;" vertex="1" parent="1">
          <mxGeometry x="75" y="380" width="10" height="220" as="geometry" />
        </mxCell>
        <mxCell id="O3P-cf8QrBY7kVAXS-Ra-42" value="" style="endArrow=classic;html=1;rounded=0;entryX=0.043;entryY=0.181;entryDx=0;entryDy=0;entryPerimeter=0;" edge="1" parent="1" target="O3P-cf8QrBY7kVAXS-Ra-43">
          <mxGeometry width="50" height="50" relative="1" as="geometry">
            <mxPoint x="85" y="420" as="sourcePoint" />
            <mxPoint x="240" y="420" as="targetPoint" />
          </mxGeometry>
        </mxCell>
        <mxCell id="O3P-cf8QrBY7kVAXS-Ra-44" value="" style="endArrow=none;dashed=1;html=1;rounded=0;" edge="1" parent="1" target="O3P-cf8QrBY7kVAXS-Ra-43">
          <mxGeometry width="50" height="50" relative="1" as="geometry">
            <mxPoint x="250" y="670" as="sourcePoint" />
            <mxPoint x="249.5" y="120" as="targetPoint" />
          </mxGeometry>
        </mxCell>
        <mxCell id="O3P-cf8QrBY7kVAXS-Ra-43" value="" style="rounded=0;whiteSpace=wrap;html=1;" vertex="1" parent="1">
          <mxGeometry x="245" y="380" width="10" height="220" as="geometry" />
        </mxCell>
        <mxCell id="O3P-cf8QrBY7kVAXS-Ra-46" value="rqMessage()" style="text;html=1;strokeColor=none;fillColor=none;align=center;verticalAlign=middle;whiteSpace=wrap;rounded=0;" vertex="1" parent="1">
          <mxGeometry x="130" y="390" width="60" height="30" as="geometry" />
        </mxCell>
        <mxCell id="O3P-cf8QrBY7kVAXS-Ra-48" value="" style="endArrow=none;dashed=1;html=1;rounded=0;" edge="1" parent="1" target="O3P-cf8QrBY7kVAXS-Ra-47">
          <mxGeometry width="50" height="50" relative="1" as="geometry">
            <mxPoint x="425" y="671.2307974008413" as="sourcePoint" />
            <mxPoint x="424.5" y="120" as="targetPoint" />
          </mxGeometry>
        </mxCell>
        <mxCell id="O3P-cf8QrBY7kVAXS-Ra-47" value="" style="rounded=0;whiteSpace=wrap;html=1;" vertex="1" parent="1">
          <mxGeometry x="420" y="380" width="10" height="220" as="geometry" />
        </mxCell>
        <mxCell id="O3P-cf8QrBY7kVAXS-Ra-50" value="" style="endArrow=classic;html=1;rounded=0;" edge="1" parent="1">
          <mxGeometry width="50" height="50" relative="1" as="geometry">
            <mxPoint x="255" y="440" as="sourcePoint" />
            <mxPoint x="420" y="440" as="targetPoint" />
          </mxGeometry>
        </mxCell>
        <mxCell id="O3P-cf8QrBY7kVAXS-Ra-51" value="returnRST()" style="text;html=1;strokeColor=none;fillColor=none;align=center;verticalAlign=middle;whiteSpace=wrap;rounded=0;" vertex="1" parent="1">
          <mxGeometry x="315" y="410" width="60" height="30" as="geometry" />
        </mxCell>
        <mxCell id="O3P-cf8QrBY7kVAXS-Ra-53" value="" style="endArrow=classic;html=1;rounded=0;exitX=1.043;exitY=0.405;exitDx=0;exitDy=0;exitPerimeter=0;entryX=0;entryY=0.5;entryDx=0;entryDy=0;" edge="1" parent="1" source="O3P-cf8QrBY7kVAXS-Ra-47" target="O3P-cf8QrBY7kVAXS-Ra-62">
          <mxGeometry width="50" height="50" relative="1" as="geometry">
            <mxPoint x="435" y="470" as="sourcePoint" />
            <mxPoint x="775" y="470" as="targetPoint" />
          </mxGeometry>
        </mxCell>
        <mxCell id="O3P-cf8QrBY7kVAXS-Ra-56" value="" style="endArrow=none;dashed=1;html=1;rounded=0;" edge="1" parent="1" target="O3P-cf8QrBY7kVAXS-Ra-55">
          <mxGeometry width="50" height="50" relative="1" as="geometry">
            <mxPoint x="600" y="670" as="sourcePoint" />
            <mxPoint x="600" y="230" as="targetPoint" />
          </mxGeometry>
        </mxCell>
        <mxCell id="O3P-cf8QrBY7kVAXS-Ra-33" value="saveDB()" style="text;html=1;strokeColor=none;fillColor=none;align=center;verticalAlign=middle;whiteSpace=wrap;rounded=0;fontSize=12;" vertex="1" parent="1">
          <mxGeometry x="570" y="300" width="60" height="30" as="geometry" />
        </mxCell>
        <mxCell id="O3P-cf8QrBY7kVAXS-Ra-55" value="refDB()" style="text;html=1;strokeColor=none;fillColor=none;align=center;verticalAlign=middle;whiteSpace=wrap;rounded=0;" vertex="1" parent="1">
          <mxGeometry x="570" y="440" width="60" height="30" as="geometry" />
        </mxCell>
        <mxCell id="O3P-cf8QrBY7kVAXS-Ra-57" value="" style="endArrow=classic;html=1;rounded=0;dashed=1;" edge="1" parent="1">
          <mxGeometry width="50" height="50" relative="1" as="geometry">
            <mxPoint x="420" y="500" as="sourcePoint" />
            <mxPoint x="255" y="500" as="targetPoint" />
          </mxGeometry>
        </mxCell>
        <mxCell id="O3P-cf8QrBY7kVAXS-Ra-59" value="return&amp;nbsp;&lt;br&gt;returnRST()" style="text;html=1;strokeColor=none;fillColor=none;align=center;verticalAlign=middle;whiteSpace=wrap;rounded=0;" vertex="1" parent="1">
          <mxGeometry x="310" y="470" width="60" height="30" as="geometry" />
        </mxCell>
        <mxCell id="O3P-cf8QrBY7kVAXS-Ra-60" value="" style="endArrow=classic;html=1;rounded=0;entryX=0.852;entryY=0.685;entryDx=0;entryDy=0;entryPerimeter=0;dashed=1;" edge="1" parent="1" target="O3P-cf8QrBY7kVAXS-Ra-39">
          <mxGeometry width="50" height="50" relative="1" as="geometry">
            <mxPoint x="245" y="530" as="sourcePoint" />
            <mxPoint x="90" y="530" as="targetPoint" />
          </mxGeometry>
        </mxCell>
        <mxCell id="O3P-cf8QrBY7kVAXS-Ra-61" value="return&lt;br&gt;rqMessage()" style="text;html=1;strokeColor=none;fillColor=none;align=center;verticalAlign=middle;whiteSpace=wrap;rounded=0;" vertex="1" parent="1">
          <mxGeometry x="130" y="500" width="60" height="30" as="geometry" />
        </mxCell>
        <mxCell id="O3P-cf8QrBY7kVAXS-Ra-63" value="" style="endArrow=none;dashed=1;html=1;rounded=0;" edge="1" parent="1" target="O3P-cf8QrBY7kVAXS-Ra-62">
          <mxGeometry width="50" height="50" relative="1" as="geometry">
            <mxPoint x="775" y="670" as="sourcePoint" />
            <mxPoint x="775" y="340" as="targetPoint" />
          </mxGeometry>
        </mxCell>
        <mxCell id="O3P-cf8QrBY7kVAXS-Ra-62" value="" style="rounded=0;whiteSpace=wrap;html=1;" vertex="1" parent="1">
          <mxGeometry x="770" y="460" width="10" height="20" as="geometry" />
        </mxCell>
        <mxCell id="O3P-cf8QrBY7kVAXS-Ra-65" value="" style="endArrow=classic;html=1;rounded=0;entryX=0.043;entryY=0.181;entryDx=0;entryDy=0;entryPerimeter=0;" edge="1" parent="1">
          <mxGeometry width="50" height="50" relative="1" as="geometry">
            <mxPoint x="85" y="580" as="sourcePoint" />
            <mxPoint x="245" y="580" as="targetPoint" />
          </mxGeometry>
        </mxCell>
        <mxCell id="O3P-cf8QrBY7kVAXS-Ra-66" value="chMessage()" style="text;html=1;strokeColor=none;fillColor=none;align=center;verticalAlign=middle;whiteSpace=wrap;rounded=0;" vertex="1" parent="1">
          <mxGeometry x="130" y="550" width="60" height="30" as="geometry" />
        </mxCell>
      </root>
    </mxGraphModel>
  </diagram>
</mxfile>
